<svg width="24" height="24" viewBox="0 0 24 24" fill="none" xmlns="http://www.w3.org/2000/svg">
<path d="M9.00985 11.75C9.42406 11.75 9.75985 11.4142 9.75985 11C9.75985 10.5858 9.42406 10.25 9.00985 10.25V11.75ZM8.99985 10.25C8.58563 10.25 8.24985 10.5858 8.24985 11C8.24985 11.4142 8.58563 11.75 8.99985 11.75V10.25ZM15.0098 11.75C15.4241 11.75 15.7598 11.4142 15.7598 11C15.7598 10.5858 15.4241 10.25 15.0098 10.25V11.75ZM14.9998 10.25C14.5856 10.25 14.2498 10.5858 14.2498 11C14.2498 11.4142 14.5856 11.75 14.9998 11.75V10.25ZM6.77794 8.75H17.2218V7.25H6.77794V8.75ZM19.4651 10.8274L20.0036 17.8274L21.4992 17.7124L20.9607 10.7124L19.4651 10.8274ZM17.7602 20.25H6.23948V21.75H17.7602V20.25ZM3.99611 17.8274L4.53457 10.8274L3.03899 10.7124L2.50053 17.7124L3.99611 17.8274ZM6.23948 20.25C4.92883 20.25 3.89559 19.1342 3.99611 17.8274L2.50053 17.7124C2.33299 19.8904 4.05507 21.75 6.23948 21.75V20.25ZM20.0036 17.8274C20.1041 19.1342 19.0709 20.25 17.7602 20.25V21.75C19.9446 21.75 21.6667 19.8904 21.4992 17.7124L20.0036 17.8274ZM17.2218 8.75C18.3975 8.75 19.375 9.65519 19.4651 10.8274L20.9607 10.7124C20.8104 8.75865 19.1813 7.25 17.2218 7.25V8.75ZM6.77794 7.25C4.81843 7.25 3.18927 8.75865 3.03899 10.7124L4.53457 10.8274C4.62474 9.65519 5.60224 8.75 6.77794 8.75V7.25ZM14.2498 6V8H15.7498V6H14.2498ZM9.74985 8V6H8.24985V8H9.74985ZM11.9998 3.75C13.2425 3.75 14.2498 4.75736 14.2498 6H15.7498C15.7498 3.92893 14.0709 2.25 11.9998 2.25V3.75ZM11.9998 2.25C9.92878 2.25 8.24985 3.92893 8.24985 6H9.74985C9.74985 4.75736 10.7572 3.75 11.9998 3.75V2.25ZM9.00985 10.25H8.99985V11.75H9.00985V10.25ZM15.0098 10.25H14.9998V11.75H15.0098V10.25Z" fill="#252432"/>
</svg>
